<svg width="45" height="38" viewBox="0 0 45 38" fill="none" xmlns="http://www.w3.org/2000/svg">
<path d="M36.2301 3.51703C35.5721 2.90265 34.9915 2.36507 34.4109 1.80829C34.1593 1.5587 33.9464 1.27071 34.1399 0.867518C34.3141 0.50273 34.6044 0.387533 34.9915 0.387533C37.9526 0.272337 40.9137 0.137941 43.8748 0.00354553C44.649 -0.0348533 45.0361 0.233938 44.9974 1.04031C44.8619 3.92022 44.7264 6.78093 44.5522 9.66084C44.5329 10.0832 44.6103 10.6016 44.0297 10.7744C43.5071 10.928 43.1975 10.6016 42.8684 10.2752C42.3072 9.69924 41.6879 9.18086 41.1847 8.56648C40.7783 8.08649 40.5073 8.22089 40.1009 8.52808C32.5529 14.1727 24.9856 19.7981 17.4183 25.4427C16.0442 26.4603 16.0442 26.4795 14.9798 25.174C12.4444 22.0061 9.87039 18.8958 7.35441 15.7279C6.90927 15.1519 6.67703 15.2287 6.21254 15.6511C4.6836 17.0334 3.1353 18.3774 1.587 19.7213C1.27734 19.9901 0.948331 20.2973 0.483843 20.0669C0.0387074 19.8557 0 19.4333 0 18.9917C0 17.2062 0.0193537 15.4207 0 13.6159C0 13.1359 0.135476 12.7519 0.503196 12.4448C2.39986 10.8128 4.29652 9.16166 6.15448 7.49131C6.83186 6.87693 7.29635 7.03052 7.8189 7.6833C10.4316 10.9088 13.1025 14.1151 15.7152 17.3598C16.199 17.9742 16.5087 18.0126 17.128 17.5518C23.4373 12.9055 29.7853 8.25929 36.2301 3.51703Z" fill="#EAEAEA"/>
<path d="M44.1071 26.1147C44.1071 29.6282 44.1071 33.1417 44.1071 36.6552C44.1071 37.9223 44.0103 37.9991 42.7136 37.9991C41.204 37.9991 39.6944 37.9799 38.1655 37.9991C37.43 37.9991 37.1204 37.6919 37.1204 36.9624C37.1204 29.705 37.1204 22.4668 37.1204 15.2095C37.1204 14.4607 37.4494 14.1919 38.1848 14.1919C39.7718 14.2111 41.3395 14.2303 42.9265 14.1919C43.7974 14.1727 44.1264 14.5183 44.1071 15.3822C44.0877 18.9533 44.1071 22.5436 44.1071 26.1147Z" fill="#EAEAEA"/>
<path d="M0.774138 30.2618C0.774138 28.1307 0.812845 25.9803 0.754784 23.8492C0.735431 22.9276 1.10315 22.6012 2.01277 22.6396C3.56107 22.678 5.10937 22.678 6.63831 22.6396C7.41246 22.6204 7.74147 22.9468 7.74147 23.7148C7.72212 28.1115 7.72212 32.5273 7.74147 36.924C7.74147 37.7112 7.41246 37.9992 6.63831 37.9992C5.07066 37.98 3.48366 37.9608 1.91601 37.9992C1.0838 38.0184 0.754784 37.692 0.774138 36.8664C0.793492 34.6777 0.774138 32.4697 0.774138 30.2618Z" fill="#EAEAEA"/>
<path d="M32.4949 30.3194C32.4949 32.4889 32.4755 34.6585 32.5142 36.828C32.5336 37.7112 32.1659 38.0184 31.3143 37.9992C29.7466 37.9608 28.1596 37.98 26.592 37.9992C25.8565 37.9992 25.5469 37.692 25.5469 36.9624C25.5662 32.5273 25.5662 28.0923 25.5469 23.6572C25.5469 22.9276 25.8759 22.6204 26.592 22.6396C28.1983 22.6588 29.8047 22.6588 31.4111 22.6396C32.1852 22.6204 32.5142 22.9468 32.5142 23.7148C32.4755 25.9227 32.4949 28.1307 32.4949 30.3194Z" fill="#EAEAEA"/>
<path d="M20.1085 33.4681C20.1085 34.6201 20.0891 35.772 20.1085 36.9048C20.1278 37.6728 19.8375 38.0184 19.044 37.9992C17.4377 37.98 15.8313 37.98 14.225 37.9992C13.4315 38.0184 13.1412 37.6728 13.1412 36.9048C13.1605 34.5817 13.1605 32.2393 13.1412 29.9162C13.1412 29.1098 13.4121 28.7451 14.2637 28.7643C15.87 28.8026 17.4764 28.7834 19.0827 28.7643C19.8182 28.7643 20.1278 29.0906 20.1085 29.801C20.1085 31.0298 20.1085 32.2393 20.1085 33.4681Z" fill="#EAEAEA"/>
</svg>
