<svg width="41" height="42" viewBox="0 0 41 42" fill="none" xmlns="http://www.w3.org/2000/svg">
<path d="M17.0453 33.8959C17.0453 31.989 17.0613 30.0657 17.0292 28.1589C17.0131 27.6 17.1578 27.2548 17.7042 27.0575C19.2954 26.4822 20.5973 25.4959 21.5617 24.0329C21.7706 23.7205 21.8992 23.4575 21.8992 23.0794C21.8831 21.9616 21.8831 20.8438 21.8992 19.7096C21.9153 18.3288 22.7511 17.589 24.069 17.7698C26.2388 18.0657 27.6532 19.6931 27.7014 21.9452C27.7175 22.8164 27.7014 23.6877 27.7014 24.5753C27.7014 25.9068 27.7014 25.9233 28.9872 25.9233C30.2731 25.9233 31.4142 26.2685 32.3143 27.2383C33.0376 28.0274 33.4394 28.9644 33.4394 30.0329C33.4554 32.663 33.4715 35.2931 33.4394 37.9068C33.4072 40.126 31.6232 41.9507 29.4373 41.9836C26.3674 42.0164 23.2814 41.9836 20.2116 42C19.3597 42 18.8454 41.3096 18.1543 41.0301C17.2863 40.6685 16.9649 40.0932 17.0292 39.0904C17.1256 37.3479 17.0453 35.6219 17.0453 33.8959Z" fill="white"/>
<path d="M0.0243143 26.4986C0.12075 25.2329 -0.168558 23.6548 0.168968 22.1096C0.667221 19.8082 2.66023 18.1808 4.95862 18.1644C6.88734 18.1479 8.81606 18.1479 10.7448 18.1644C13.5093 18.1808 15.6952 20.4164 15.7594 23.2767C15.7916 24.9041 15.7916 24.9041 14.2165 24.9041C12.4485 24.9041 10.6805 24.9534 8.91249 24.8877C8.15708 24.8548 8.0285 25.1178 8.06064 25.8082C8.10886 27.4192 8.06064 29.0466 8.09279 30.6575C8.10886 31.1671 7.94813 31.2986 7.46595 31.2822C5.18364 31.2493 2.91739 31.2493 0.635075 31.2822C0.12075 31.2822 0.00824168 31.1178 0.0243143 30.6247C0.0564597 29.3589 0.0243143 28.0603 0.0243143 26.4986Z" fill="white"/>
<path d="M7.8517 15.5835C4.62109 15.5671 2.09769 12.9534 2.11376 9.61642C2.12983 6.3945 4.76575 3.73148 7.91599 3.7808C11.1305 3.81367 13.7021 6.50956 13.67 9.7808C13.6379 13.0027 11.0341 15.6 7.8517 15.5835Z" fill="white"/>
<path d="M10.4715 33.8301C10.4715 31.8904 10.4876 29.9507 10.4555 27.9945C10.4555 27.4849 10.584 27.337 11.0823 27.3534C12.0949 27.3863 13.1075 27.3863 14.1361 27.3534C14.5058 27.3534 14.6504 27.4356 14.6504 27.8466C14.6344 31.8411 14.6344 35.8356 14.6504 39.8301C14.6504 40.2247 14.5379 40.3397 14.1522 40.3233C13.1075 40.3068 12.0627 40.2904 11.018 40.3233C10.5358 40.3397 10.4555 40.1425 10.4555 39.7151C10.4876 37.7753 10.4715 35.8027 10.4715 33.8301Z" fill="white"/>
<path d="M24.8083 11.0137C23.3618 8.77809 21.6099 6.93699 19.3919 5.49041C21.5938 4.01096 23.3457 2.20274 24.7762 0C25.387 0.789042 25.9334 1.54521 26.5281 2.25206C27.4764 3.36987 28.5693 4.33973 29.7748 5.16165C30.0802 5.35891 30.2248 5.47398 29.8069 5.76987C27.8139 7.15069 26.1745 8.87672 24.8083 11.0137Z" fill="#EAEAEA"/>
<path d="M35.7378 19.9069C34.2912 17.6712 32.5393 15.8466 30.3213 14.3671C32.5071 12.8877 34.2751 11.0959 35.7056 8.87672C36.2842 9.61645 36.7825 10.3397 37.345 11.0137C38.3255 12.1808 39.4505 13.2 40.7042 14.0548C40.9935 14.2521 41.1703 14.3836 40.7524 14.663C38.7433 16.0274 37.1039 17.7699 35.7378 19.9069Z" fill="#EAEAEA"/>
</svg>
