<svg width="45" height="45" viewBox="0 0 45 45" fill="none" xmlns="http://www.w3.org/2000/svg">
<path d="M43.4168 17.6089C43.4371 15.5758 42.3601 14.7016 40.3687 15.0675C34.4556 16.1044 28.9082 10.5337 29.9445 4.61732C30.29 2.6452 29.4162 1.58798 27.3842 1.58798C24.641 1.56765 21.8977 1.58798 19.1545 1.58798C16.452 1.58798 13.7494 1.56765 11.0468 1.58798C4.8898 1.64898 0.13489 6.26414 0.0536098 12.4041C-0.0276707 17.4463 -0.00735062 22.4884 0.0536098 27.5508C0.11457 32.6133 3.36579 36.8421 8.2223 37.9807C9.90887 38.367 11.697 38.306 13.4649 38.3263C14.7044 38.3466 15.5985 38.7736 16.3097 39.7698C17.1835 41.01 18.1182 42.2096 19.0529 43.4294C20.6379 45.5235 22.8731 45.5235 24.4581 43.4294C25.4538 42.1079 26.4698 40.7864 27.4451 39.4445C28.0141 38.6719 28.7456 38.306 29.7007 38.3263C30.8792 38.3466 32.0781 38.3466 33.2567 38.306C38.1742 38.184 42.9088 33.9551 43.2542 29.0553C43.498 25.2737 43.3964 21.4312 43.4168 17.6089ZM13.0788 23.2813C11.8596 23.3016 10.9046 22.3257 10.9249 21.0855C10.9249 19.8657 11.819 18.9914 13.0382 18.9711C14.2777 18.9508 15.2531 19.9266 15.2327 21.1262C15.2124 22.2851 14.2371 23.2813 13.0788 23.2813ZM21.7961 23.2813C20.6176 23.3219 19.5609 22.3054 19.5609 21.1262C19.5406 19.9876 20.516 19.0117 21.6742 18.9711C22.8934 18.9508 23.9094 19.9063 23.9094 21.1059C23.9094 22.2647 22.9341 23.261 21.7961 23.2813ZM30.4525 23.2813C29.274 23.3219 28.2376 22.3257 28.2173 21.1262C28.197 19.9266 29.1927 18.9711 30.4119 18.9711C31.6311 18.9914 32.5049 19.8657 32.5049 21.0855C32.5455 22.3054 31.6311 23.261 30.4525 23.2813Z" fill="white"/>
<path d="M39.0387 11.0525C35.8163 11.0525 33.178 8.56714 33.1579 5.55456C33.1579 2.50432 35.8365 -0.018724 39.0991 0.000104706C42.3013 0.0189334 44.9799 2.52314 45 5.5169C45 8.56714 42.3214 11.0714 39.0387 11.0525Z" fill="#EAEAEA"/>
</svg>
