<svg width="45" height="45" viewBox="0 0 45 45" fill="none" xmlns="http://www.w3.org/2000/svg">
<path d="M44.9804 10.3363C44.9804 9.21873 44.8435 8.12078 44.5108 7.06205C43.1803 2.7879 39.3845 0.0430395 34.7668 0.0430395C26.2947 0.0234333 17.8225 0.0430395 9.36985 0.0430395C8.68503 0.0430395 8.00021 -0.0942038 7.33496 0.121464C7.53062 0.493981 7.90238 0.533194 8.23501 0.650831C10.9547 1.70956 12.2852 3.65058 12.2852 6.5719C12.2852 11.9048 12.2852 17.2573 12.2852 22.5901C12.2852 23.0999 12.207 23.6489 12.5787 24.0802C12.5983 28.9818 12.5983 33.8637 12.6179 38.7652C12.6374 42.5688 15.0441 45 18.8595 45C25.4729 45 32.0863 45 38.6997 45C42.5738 45 45 42.608 45 38.726C44.9804 29.2758 44.9804 19.8061 44.9804 10.3363ZM22.5575 12.591C24.6511 12.5518 26.7251 12.5518 28.8187 12.591C29.7383 12.6106 30.384 13.336 30.3644 14.1595C30.3644 15.0418 29.6992 15.6692 28.6817 15.6888C27.6839 15.7084 26.6664 15.6888 25.649 15.6888C24.6315 15.6888 23.6336 15.7084 22.6162 15.6888C21.6575 15.6692 21.0118 15.081 20.9726 14.2379C20.9335 13.3752 21.5792 12.6106 22.5575 12.591ZM34.669 34.5107C32.7124 34.5107 30.7558 34.5107 28.7991 34.5107C26.8034 34.5107 24.8272 34.5107 22.8314 34.5107C21.6575 34.5107 20.9726 33.9225 20.9531 32.9814C20.9531 32.0403 21.6575 31.3933 22.7923 31.3933C26.7643 31.3737 30.7362 31.3737 34.7081 31.3933C35.843 31.3933 36.5669 32.0207 36.5865 32.9422C36.6256 33.9225 35.9017 34.5107 34.669 34.5107ZM34.7473 28.2367C32.7515 28.2563 30.7753 28.2367 28.7796 28.2367C26.7838 28.2367 24.8076 28.2367 22.8119 28.2367C21.6575 28.2367 20.9531 27.6289 20.9531 26.6878C20.9531 25.7467 21.677 25.1193 22.8119 25.1193C26.7838 25.0997 30.7558 25.0997 34.7277 25.1193C35.8626 25.1193 36.5865 25.7663 36.5865 26.6878C36.6061 27.6485 35.9213 28.2367 34.7473 28.2367ZM34.7473 21.9627C32.7515 21.9823 30.7753 21.9627 28.7796 21.9627C26.7838 21.9627 24.8076 21.9627 22.8119 21.9627C21.6575 21.9627 20.9531 21.355 20.9531 20.4139C20.9531 19.4728 21.677 18.8454 22.8119 18.8454C26.7838 18.8258 30.7558 18.8258 34.7277 18.8454C35.8626 18.8454 36.5865 19.4924 36.5865 20.4139C36.6061 21.3746 35.9213 21.9627 34.7473 21.9627Z" fill="white"/>
<path d="M7.33496 0.121464C10.5243 0.690043 12.6961 3.43491 12.6179 6.70914C12.5005 12.493 12.5592 18.2964 12.5592 24.0802C10.4069 24.0802 8.27414 24.0802 6.12185 24.0802C2.87386 24.0802 0.369376 22.0412 0.19328 18.8258C-0.0415152 14.9045 -0.100214 10.9441 0.232412 7.00323C0.545472 3.14081 3.48041 0.435163 7.33496 0.121464Z" fill="#EAEAEA"/>
</svg>
