<svg width="45" height="44" viewBox="0 0 45 44" fill="none" xmlns="http://www.w3.org/2000/svg">
<path d="M41.5754 22.3134C40.2207 16.4037 36.4379 12.3584 31.3531 9.36844C31.0892 9.21015 30.8605 9.21015 30.5438 9.2805C27.7463 9.98403 24.9312 9.98403 22.1337 9.2805C21.7466 9.17497 21.4651 9.24532 21.166 9.42121C17.7527 11.3911 14.9376 13.9766 12.967 17.4063C10.8381 21.0998 10.1168 25.022 11.2604 29.1904C11.366 29.5773 11.4891 29.8412 11.9642 29.7181C14.9376 28.909 17.7879 29.4542 20.6558 30.3512C22.3624 30.8965 24.0515 31.5121 25.8461 31.7759C26.1628 32.0221 26.5675 32.0573 26.9369 32.198C28.7492 32.8839 30.7901 32.9543 32.3912 34.2031C32.5671 34.3262 32.7255 34.2382 32.8838 34.1855C35.0831 33.6402 37.3 33.095 39.4993 32.5849C39.8864 32.497 40.0975 32.3035 40.2734 31.9869C41.8569 28.9266 42.3496 25.6728 41.5754 22.3134ZM27.5703 29.7356C26.9017 29.9115 27.0777 30.3512 27.0777 30.7558C27.0425 31.7583 26.8138 31.9518 25.8285 31.7935H25.8109C25.7229 31.5824 25.547 31.3713 25.5822 31.1955C25.7933 30.105 25.2127 29.6125 24.3154 29.208C23.5588 28.8562 23.1014 28.1175 22.7495 27.3788C22.5559 26.9567 22.5208 26.4994 23.031 26.2532C23.5236 26.0245 23.8755 26.2708 24.0867 26.7281C24.6849 27.9944 25.6526 28.5748 27.0425 28.3813C27.7815 28.2758 28.3797 27.9241 28.4852 27.0974C28.5908 26.218 28.0102 25.8486 27.2712 25.6552C26.5675 25.4617 25.8637 25.3034 25.1775 25.0572C23.7172 24.5295 23.0134 23.6149 22.9958 22.3134C22.9606 20.9239 23.6116 20.0093 25.1071 19.4641C25.4766 19.3234 25.5294 19.1651 25.5294 18.8485C25.5294 18.5495 25.5118 18.2505 25.547 17.9691C25.6174 17.5646 25.8461 17.2832 26.3211 17.3007C26.7434 17.3183 27.0777 17.5997 27.0073 17.9339C26.7962 19.0947 27.4472 19.4641 28.3621 19.7983C29.101 20.0621 29.5057 20.748 29.7872 21.4867C29.9632 21.944 29.84 22.331 29.4177 22.5245C28.9779 22.7179 28.6612 22.542 28.4149 22.1023C27.7991 20.9239 27.0953 20.6073 25.7757 20.836C25.0719 20.9591 24.5793 21.346 24.4561 22.0496C24.333 22.7531 24.7201 23.2104 25.3183 23.527C25.9693 23.8788 26.6906 23.9843 27.3944 24.1602C29.0483 24.5999 29.9808 25.5672 30.0159 26.9039C30.0687 28.1703 29.1538 29.3135 27.5703 29.7356Z" fill="white"/>
<path d="M9.0787 36.1378C9.0787 34.9066 9.0787 33.6755 9.0787 32.4443C9.0787 32.2156 8.97313 31.9166 9.3778 31.8287C12.017 31.2307 14.6561 30.3161 17.4008 31.0372C19.8816 31.688 22.3272 32.4443 24.7904 33.1478C26.5499 33.6579 28.3093 34.1679 30.0687 34.6956C31.3003 35.0649 31.793 35.5926 31.617 36.3665C31.4411 37.1228 30.5966 37.5449 29.4529 37.3162C26.286 36.6655 23.119 35.9795 19.952 35.2936C19.1251 35.1177 18.2981 34.9418 17.4712 34.7483C16.9434 34.6252 16.5915 34.7835 16.4683 35.2936C16.3452 35.8388 16.697 36.1202 17.1721 36.2258C21.254 37.1052 25.3183 38.0198 29.4002 38.8464C31.3707 39.2509 32.9014 38.0725 33.1477 36.1202C33.1829 35.7685 33.2709 35.6102 33.6228 35.5398C36.6314 34.8363 39.6225 34.0976 42.6311 33.3941C43.8627 33.1126 44.7424 33.3765 44.9535 34.0096C45.1823 34.7132 44.5489 35.6102 43.4404 36.1026C39.816 37.6856 36.174 39.2685 32.5495 40.8339C30.3327 41.7837 28.1686 42.9093 25.8637 43.5952C23.6996 44.246 21.5355 44.0525 19.389 43.4369C16.1692 42.4872 12.967 41.555 9.74728 40.6404C9.25464 40.4997 9.04351 40.2886 9.0787 39.7434C9.11389 38.5298 9.0787 37.3338 9.0787 36.1378Z" fill="white"/>
<path d="M4.29304 32.3211C4.25785 32.5674 4.13469 32.7608 3.81799 32.7608C3.4661 32.7608 3.29016 32.5849 3.29016 32.2332C3.29016 31.9166 3.4837 31.7407 3.76521 31.7407C4.0819 31.7407 4.29304 31.9342 4.29304 32.3211Z" fill="#010101"/>
<path d="M7.58316 30.0171C7.58316 29.4894 7.47759 29.296 6.91457 29.3136C4.83844 29.3487 2.76231 29.3487 0.686179 29.3136C0.140755 29.3136 0 29.4719 0 30.0171C0.0351887 32.1277 0.0175943 34.2383 0.0175943 36.3313C0.0175943 38.4946 0.0351887 40.658 0 42.8213C0 43.3138 0.12316 43.4721 0.633396 43.4721C2.74472 43.4369 4.85604 43.4369 6.94976 43.4721C7.4424 43.4721 7.58316 43.3314 7.58316 42.8389C7.54797 38.565 7.54797 34.291 7.58316 30.0171ZM3.78278 34.3086C2.70953 34.3086 1.77703 33.394 1.75943 32.3212C1.72424 31.1955 2.63915 30.2633 3.78278 30.2633C4.89122 30.2633 5.78853 31.1252 5.80613 32.2332C5.82372 33.3589 4.90882 34.3086 3.78278 34.3086Z" fill="#EAEAEA"/>
<path d="M26.4619 8.29558C22.8023 8.29558 22.8023 8.29558 21.4299 5.07693C21.078 4.25028 20.7085 3.42364 20.3742 2.5794C20.0224 1.69999 20.3039 0.978869 20.9724 0.380868C21.6234 -0.199544 22.3272 -0.0588381 22.9782 0.416045C23.7348 0.978869 24.4561 1.01405 25.2303 0.433633C25.9516 -0.111603 26.6906 -0.129191 27.3944 0.433633C28.1509 1.01405 28.8723 0.978869 29.6465 0.416045C30.2974 -0.0588381 30.9836 -0.181956 31.6522 0.380868C32.3208 0.943692 32.6023 1.69999 32.2856 2.50905C31.617 4.21511 30.8429 5.8684 30.1391 7.57446C30.0159 7.87346 29.8048 7.92623 29.5409 7.99658C28.4676 8.22523 27.3944 8.33076 26.4619 8.29558Z" fill="#EAEAEA"/>
<path d="M25.7757 31.7759C25.793 31.7759 25.793 31.7759 25.7757 31.7759C25.793 31.7759 25.793 31.7932 25.793 31.7932C25.8103 31.7932 25.793 31.7932 25.7757 31.7759Z" fill="#F7FAFB"/>
<path d="M4.29304 32.3211C4.25785 32.5674 4.13469 32.7608 3.81799 32.7608C3.4661 32.7608 3.29016 32.5849 3.29016 32.2332C3.29016 31.9166 3.4837 31.7407 3.76521 31.7407C4.0819 31.7407 4.29304 31.9342 4.29304 32.3211Z" fill="#F6F9FA"/>
<path d="M4.29304 32.3211C4.25785 32.5674 4.13469 32.7608 3.81799 32.7608C3.4661 32.7608 3.29016 32.5849 3.29016 32.2332C3.29016 31.9166 3.4837 31.7407 3.76521 31.7407C4.0819 31.7407 4.29304 31.9342 4.29304 32.3211Z" fill="#1D1E1E"/>
</svg>
