<svg width="45" height="49" viewBox="0 0 45 49" fill="none" xmlns="http://www.w3.org/2000/svg">
<path d="M22.4192 15.9045C15.9845 15.9045 9.57192 15.9266 3.13718 15.9045C0.896119 15.9045 -0.479583 14.0679 0.186079 12.0542C0.452344 11.2576 1.00706 10.7045 1.76148 10.3061C7.95214 7.07549 14.1206 3.8227 20.2891 0.56991C21.7535 -0.204564 23.2624 -0.182436 24.7268 0.592038C30.9175 3.8227 37.086 7.07549 43.2544 10.3283C44.5636 11.0142 45.207 12.364 44.8964 13.6253C44.5636 15.0415 43.4319 15.9045 41.79 15.9045C35.3552 15.9045 28.8983 15.9045 22.4192 15.9045Z" fill="white"/>
<path d="M22.5302 41.8825C28.8096 41.8825 35.089 41.8825 41.3684 41.8825C42.8994 41.8825 43.9867 42.5685 44.6302 43.9183C45.2736 45.2238 45.0517 46.5072 44.1642 47.6358C43.321 48.72 42.1228 48.9856 40.8137 48.9856C30.7622 48.9856 20.7107 48.9856 10.6814 48.9856C8.35155 48.9856 6.02174 49.0298 3.69192 48.9634C1.71712 48.9192 0.319231 47.6579 0.0307771 45.7991C-0.19111 44.2723 0.807383 42.657 2.3606 42.0817C2.95969 41.8604 3.60316 41.9046 4.22445 41.9046C10.3264 41.8825 16.4283 41.8825 22.5302 41.8825Z" fill="#EAEAEA"/>
<path d="M4.77914 28.8935C4.77914 27.3446 4.75695 25.7956 4.77914 24.2467C4.82352 22.1888 6.15484 20.7505 8.04088 20.662C10.1044 20.5735 11.7464 21.879 11.813 23.959C11.9239 27.234 11.9239 30.5089 11.813 33.7838C11.7464 35.8859 10.0822 37.1915 8.04088 37.103C6.13265 37.0144 4.80133 35.5761 4.75695 33.5183C4.75695 31.9914 4.77914 30.4425 4.77914 28.8935Z" fill="#EAEAEA"/>
<path d="M18.9799 28.8714C18.9799 27.3225 18.9578 25.7735 18.9799 24.2246C19.0243 22.1667 20.3556 20.7284 22.2639 20.662C24.3274 20.5735 25.9694 21.879 26.036 23.9812C26.1469 27.2561 26.1469 30.531 26.036 33.8059C25.9472 35.9081 24.3052 37.2136 22.2417 37.103C20.3335 37.0144 19.0243 35.5761 18.9799 33.4961C18.9578 31.9693 18.9799 30.4204 18.9799 28.8714Z" fill="#EAEAEA"/>
<path d="M40.2812 28.8935C40.2812 30.4425 40.3256 31.9914 40.259 33.5403C40.1924 35.377 38.972 36.8374 37.3744 37.0808C35.555 37.3685 34.0239 36.5055 33.3805 34.868C33.1586 34.3369 33.1808 33.7838 33.1808 33.2527C33.1808 30.3539 33.1586 27.4331 33.1808 24.5343C33.203 22.1888 34.5343 20.7062 36.6422 20.6841C38.7945 20.662 40.259 22.1888 40.2812 24.5122C40.3034 25.9505 40.2812 27.4331 40.2812 28.8935Z" fill="#EAEAEA"/>
</svg>
