<svg width="66" height="45" viewBox="0 0 66 45" fill="none" xmlns="http://www.w3.org/2000/svg">
<path d="M44.2976 16.3361C44.2727 16.2725 44.235 16.2148 44.1868 16.1666C44.1385 16.1183 44.0808 16.0806 44.0173 16.0557C43.8485 15.785 43.6012 15.5721 43.3084 15.4455C43.1113 15.2221 42.858 15.0555 42.5748 14.9631C42.3726 14.7855 42.1237 14.6696 41.8577 14.6291C41.5627 14.4143 41.2208 14.273 40.8604 14.2168C40.7885 14.149 40.7035 14.0969 40.6106 14.0635C40.5177 14.0302 40.4189 14.0164 40.3204 14.023C40.0615 13.8435 39.7535 13.7485 39.4385 13.7508C39.1704 13.6034 38.8739 13.5148 38.5689 13.4911C38.3834 13.4705 38.2392 13.3014 38.0042 13.3715C37.8888 14.1714 37.7721 14.9809 37.6539 15.8001C37.4355 15.8001 37.4272 15.5527 37.2747 15.495C37.2642 15.4208 37.2338 15.3509 37.1866 15.2928C37.1394 15.2347 37.0772 15.1906 37.0069 15.1651C36.7225 15.4247 36.4693 15.7167 36.2527 16.0351C35.7836 16.4725 35.3597 16.9559 34.9874 17.4782C34.6947 17.711 34.4414 17.9894 34.2373 18.3028C33.2976 19.2759 32.4074 20.2902 31.5543 21.3416C31.2274 21.6328 30.9368 21.9623 30.6888 22.323C30.6255 22.3645 30.5498 22.3827 30.4746 22.3744C30.3994 22.3661 30.3294 22.3319 30.2767 22.2776C29.9588 21.9813 29.6154 21.7136 29.2504 21.4777C28.9915 21.1978 28.693 20.9575 28.3643 20.7644C28.0543 20.4222 27.7026 20.1202 27.3175 19.8655C27.1032 20.0841 26.8312 20.1871 26.6787 20.4345C26.1484 20.7619 25.6587 21.1508 25.2197 21.5932C24.7542 21.8642 24.3295 22.2002 23.9586 22.591C23.5464 22.7394 23.6742 23.1064 23.6907 23.3867C23.8395 25.0929 23.3715 26.7959 22.3718 28.1861H23.9709C24.4947 28.2315 25.0215 28.2315 25.5453 28.1861C25.9259 28.2315 26.3105 28.2315 26.691 28.1861C27.2149 28.2315 27.7416 28.2315 28.2654 28.1861C28.5507 28.2315 28.8415 28.2315 29.1268 28.1861C29.6506 28.2315 30.1773 28.2315 30.7012 28.1861C31.0334 28.2314 31.3704 28.2314 31.7026 28.1861C32.6087 28.2356 33.5167 28.2356 34.4228 28.1861C34.6596 28.2315 34.903 28.2315 35.1399 28.1861C35.5712 28.2254 36.0056 28.2129 36.434 28.149L37.2789 28.0418C37.7217 28.0441 38.1604 27.9572 38.5689 27.7862C38.8179 27.829 39.0737 27.7728 39.2819 27.6295C39.5841 27.5943 39.8782 27.5079 40.1515 27.3739C40.4147 27.3668 40.6689 27.2758 40.8768 27.1141C41.2407 27.0355 41.5819 26.8747 41.8742 26.6441C42.1419 26.5697 42.3861 26.4277 42.5831 26.2317C42.8686 26.1234 43.1203 25.9413 43.3126 25.704C43.598 25.5582 43.8408 25.3408 44.0173 25.0731C44.0822 25.0419 44.1398 24.9976 44.1867 24.943C44.2335 24.8883 44.2685 24.8245 44.2893 24.7556C45.1961 23.8035 45.7402 22.5632 45.8266 21.2509C46.0203 19.4202 45.6329 17.7338 44.2976 16.3361Z" fill="#009952"/>
<path d="M15.4562 0.564877C15.4759 0.480376 15.4757 0.392453 15.4557 0.308028C15.4357 0.223602 15.3963 0.144978 15.3408 0.0783406C15.0935 0.424689 14.8792 0.729805 14.6607 1.0308C14.6125 1.05202 14.5714 1.08658 14.5422 1.13041C14.513 1.17425 14.4969 1.22552 14.4959 1.27819C14.3042 1.42009 14.1604 1.61717 14.0838 1.84307C13.7619 2.16002 13.4846 2.51928 13.2595 2.91097C12.6819 3.57334 12.1503 4.27455 11.6686 5.00968C11.6286 5.01766 11.593 5.04021 11.5686 5.07296C11.5442 5.10571 11.5329 5.14633 11.5367 5.18697C11.3678 5.37252 11.4543 5.59929 11.4543 5.80133C11.4543 14.1302 11.4543 22.459 11.4543 30.7879C11.4246 30.9831 11.443 31.1827 11.5079 31.3692C11.5079 31.662 11.5079 31.9547 11.5079 32.2475C11.4131 32.8907 11.1864 33.0721 10.4775 33.0721H9.26586C9.1508 33.0106 9.01648 32.9958 8.89081 33.0309C8.13864 32.9525 7.38036 32.9525 6.62818 33.0309C6.56493 33.0108 6.49818 33.004 6.4322 33.0111C6.36621 33.0182 6.30242 33.039 6.24489 33.0721C5.79566 33.0721 5.34643 33.0721 4.90132 33.0721C4.25426 33.0433 3.98637 32.7546 3.97813 32.1155C3.97813 31.7857 3.97813 31.4558 3.97813 31.126C4.06398 30.9538 4.09008 30.758 4.05232 30.5693C4.05232 25.594 4.05232 20.6146 4.05232 15.631C4.05232 15.4702 4.11002 15.297 4.0111 15.1527C3.96989 15.0868 3.89158 15.128 3.86685 15.2105C3.84213 15.2929 3.68964 15.3506 3.67315 15.4702C3.13778 16.0567 2.63819 16.6749 2.17709 17.3215C1.77354 17.7728 1.40822 18.2569 1.08492 18.7688C0.993209 18.8267 0.925793 18.9161 0.89534 19.0203C0.585877 19.2942 0.344622 19.6367 0.190787 20.0204C0.0369528 20.404 -0.0252119 20.8184 0.00924354 21.2303C0.046336 28.3511 0.0298504 35.4636 0.0298504 42.5967C0.0195484 42.9542 0.0278023 43.312 0.0545787 43.6687C0.108157 44.2089 0.289497 44.3738 0.907704 44.5181H1.46409C2.07847 44.6459 2.71257 44.6459 3.32695 44.5181C3.41526 44.5151 3.50193 44.4934 3.58119 44.4543C3.66045 44.4152 3.73048 44.3597 3.78662 44.2915C3.84277 44.2232 3.88374 44.1438 3.90681 44.0584C3.92988 43.9731 3.93453 43.8838 3.92043 43.7965C4.05012 43.4198 4.05012 43.0105 3.92043 42.6338C3.92043 40.8938 3.92043 39.158 3.92043 37.4221C3.92043 36.6964 4.10589 36.5109 4.8395 36.4944C5.43298 36.4944 6.02646 36.4944 6.61994 36.4696C7.33646 36.5109 8.05477 36.5109 8.77129 36.4696H10.3951C11.0916 36.4696 11.3101 36.6139 11.4337 37.2036C11.4337 37.4468 11.4337 37.6901 11.4337 37.9334C11.392 38.0666 11.3794 38.2072 11.3966 38.3457C11.3966 39.6198 11.3966 40.8938 11.3966 42.1679C11.3966 42.3246 11.343 42.5019 11.479 42.6379C11.4412 43.0146 11.455 43.3947 11.5203 43.7677C11.5176 43.9607 11.5886 44.1475 11.7188 44.29C11.8489 44.4324 12.0285 44.5199 12.2209 44.5346C13.0306 44.6844 13.8601 44.6941 14.6731 44.5635H14.7391L14.7968 44.5305C15.1429 44.5305 15.2913 44.3161 15.382 44.0233C15.4451 43.7686 15.4714 43.5062 15.4603 43.244C15.485 41.4133 15.4273 39.5826 15.4314 37.7478C15.4768 25.3535 15.4562 12.9592 15.4562 0.564877Z" fill="white"/>
<path d="M40.1597 12.5263C40.5288 12.4568 40.8755 12.2983 41.1695 12.0645C41.5977 11.936 41.9891 11.707 42.3111 11.3965C42.4855 11.3409 42.6326 11.2216 42.7232 11.0625C42.8997 10.9707 43.0435 10.8267 43.1353 10.6502C43.3308 10.5139 43.4757 10.3167 43.5475 10.0894C43.6245 10.0408 43.6896 9.97563 43.7381 9.89857C43.7866 9.82152 43.8172 9.73459 43.8277 9.64415C44.0546 9.35129 44.1971 9.00197 44.2399 8.63396C44.6295 7.64713 44.6295 6.54902 44.2399 5.56219C44.1961 5.11872 44.0416 4.69338 43.7907 4.32523C43.7832 4.2303 43.7554 4.13809 43.7092 4.05485C43.663 3.97161 43.5994 3.8993 43.5228 3.84281C43.4383 3.57994 43.2862 3.3439 43.0818 3.15836C42.9894 2.96615 42.8471 2.80236 42.6696 2.6842C42.6465 2.60216 42.6042 2.52682 42.5461 2.46443C42.488 2.40204 42.4159 2.35441 42.3358 2.32548C42.0223 1.95939 41.6346 1.66423 41.1983 1.45961C40.968 1.24223 40.6832 1.09121 40.374 1.02255C39.8867 0.73621 39.3473 0.549792 38.7873 0.474167C38.4947 0.474167 38.235 0.251515 37.93 0.329855C36.8389 0.15187 35.7377 0.0417074 34.6329 0L34.3445 0.0494783C33.7722 0.0103048 33.198 0.0103048 32.6258 0.0494783C32.1968 0.00825735 31.7649 0.00825735 31.3358 0.0494783C30.7855 0.0127011 30.2333 0.0140788 29.6832 0.0536015C28.683 0.020616 27.6829 0.020616 26.6828 0.0536015C26.302 0.0123755 25.9179 0.0123755 25.5371 0.0536015C24.8687 0.0123741 24.1984 0.0123741 23.53 0.0536015C22.9111 0.0123724 22.2901 0.0123724 21.6712 0.0536015H19.8248C19.7877 0.733928 19.7877 0.733928 20.237 0.754544C20.5282 0.761818 20.8175 0.804744 21.0983 0.882363H21.6712C22.3808 1.02722 23.006 1.44278 23.4146 2.04098C23.5795 2.63328 23.6668 3.2445 23.6742 3.85931C23.6742 9.45036 23.6742 15.0428 23.6742 20.6366V21.5024C24.6015 20.6778 25.4794 20.0098 26.2707 19.2264C26.6581 19.0079 26.9218 18.6203 27.3505 18.4018L30.3879 20.917C30.4662 20.6531 30.7753 20.6366 30.8536 20.3851C31.1468 19.9969 31.4722 19.6341 31.8263 19.3007C32.4959 18.6417 33.1197 17.9378 33.6933 17.1937C34.5423 16.3485 35.3006 15.429 36.0919 14.5343C35.8158 14.2704 35.4366 14.3734 35.2305 14.1219L37.996 13.1983C38.3092 13.2561 38.5647 13.0664 38.8532 13.0128C39.3058 12.9008 39.7441 12.7375 40.1597 12.5263ZM27.7956 17.6967C27.0166 17.5359 26.5963 17.7503 25.9987 18.6245C26.0384 18.3597 26.0577 18.0923 26.0564 17.8246C26.0564 16.0351 26.0564 14.2497 26.0564 12.4644C26.0876 11.8831 26.06 11.3002 25.9739 10.7244C26.0788 10.7886 26.2022 10.8154 26.3242 10.8004C26.4462 10.7855 26.5595 10.7296 26.6457 10.642C26.7621 10.7399 26.9062 10.799 27.0579 10.811C27.9192 10.9842 27.9233 10.9842 27.9233 11.8253C27.9233 13.5653 27.9233 15.3053 27.9233 17.0453C27.9069 17.2514 27.9934 17.5029 27.7915 17.6967H27.7956ZM31.3317 18.7688C31.2534 19.2223 30.6929 19.3996 30.7012 19.8944L30.6435 19.849C29.6131 19.4903 29.3452 19.1399 29.3452 18.0884C29.3452 15.2022 29.3452 12.3407 29.3452 9.46685C29.3305 9.26012 29.3597 9.05263 29.4307 8.85794C29.5017 8.66325 29.613 8.48577 29.7574 8.33709C29.9892 8.47807 30.2531 8.55772 30.5242 8.56854C30.7953 8.57936 31.0647 8.521 31.307 8.39894C31.3089 8.41676 31.3089 8.43473 31.307 8.45254C31.4142 11.8913 31.3523 15.33 31.3317 18.7688ZM33.9447 15.9155C33.6737 16.1524 33.4704 16.4568 33.3553 16.7979C33.3553 16.8309 33.3553 16.8597 33.3553 16.8886C33.108 16.8597 32.9432 17.1566 32.7 17.1112C32.7 17.0783 32.6629 17.0576 32.6629 17.037C32.597 13.689 32.6629 10.341 32.6341 6.98881C32.6341 6.57649 32.836 6.41569 33.244 6.39095C33.6827 6.43106 34.1248 6.41304 34.5588 6.33735C34.5743 6.36327 34.5868 6.39095 34.5959 6.41981C34.6948 8.96382 34.5959 11.5161 34.6536 14.0642C34.6861 14.4077 34.6379 14.754 34.5126 15.0755C34.3874 15.397 34.1886 15.6847 33.9323 15.9155H33.9447Z" fill="white"/>
<path d="M22.4089 39.7558C22.4089 37.4757 22.4625 35.1956 22.4625 32.9154C22.4625 32.2681 22.5161 31.5754 21.9638 31.0641C21.8205 30.8519 21.6279 30.6777 21.4025 30.5563C21.1771 30.435 20.9257 30.3701 20.6697 30.3673C20.6137 30.3122 20.5444 30.2726 20.4686 30.2524C20.3927 30.2322 20.3129 30.232 20.237 30.2519H19.9526C19.7311 30.2066 19.5026 30.2074 19.2814 30.2542C19.0602 30.301 18.8509 30.3928 18.6667 30.524C18.5568 30.6117 18.4768 30.7314 18.4377 30.8665C18.3985 31.0017 18.4023 31.1456 18.4483 31.2785C18.5189 31.7076 18.541 32.1433 18.5142 32.5773C18.5142 36.0656 18.5142 39.5579 18.5142 43.0461C18.5142 43.3183 18.4236 43.6192 18.6502 43.8708C18.6131 44.2171 18.8275 44.3862 19.1036 44.5016C19.3691 44.5887 19.651 44.6141 19.9279 44.5758C20.4982 44.7118 21.0926 44.7118 21.663 44.5758C21.8196 44.5758 21.9927 44.6212 22.0751 44.4315C22.5161 44.147 22.4378 43.6852 22.4378 43.277C22.4625 42.0813 22.4048 40.9186 22.4089 39.7558Z" fill="white"/>
<path d="M20.237 28.0624C20.3773 28.1099 20.5294 28.1099 20.6697 28.0624C21.1394 28.0089 21.573 27.7843 21.8878 27.4315C22.2026 27.0786 22.3766 26.6222 22.3766 26.1493C22.3766 25.6763 22.2026 25.2199 21.8878 24.8671C21.573 24.5142 21.1394 24.2896 20.6697 24.2361H20.237C19.7604 24.2804 19.3176 24.5012 18.9952 24.855C18.6728 25.2089 18.4942 25.6705 18.4942 26.1493C18.4942 26.6281 18.6728 27.0896 18.9952 27.4435C19.3176 27.7974 19.7604 28.0181 20.237 28.0624Z" fill="white"/>
<path d="M49.7337 31.963C49.6585 31.7548 49.5126 31.5797 49.3215 31.4682C49.1567 31.1837 48.8476 31.093 48.5921 30.9363C48.3195 30.6763 47.9588 30.529 47.5823 30.524C46.8203 30.1661 45.9922 29.971 45.1507 29.9509C44.5201 29.9509 43.8772 29.8066 43.259 30.0581C42.5733 30.0661 41.8983 30.2296 41.2849 30.5364C40.7893 30.6944 40.3434 30.9786 39.9907 31.361C39.2695 31.8764 38.9686 32.6474 38.7296 33.4473C38.5977 33.8844 38.7791 34.1194 39.22 34.0617C39.5333 34.0163 39.8341 34.1442 40.1391 34.0617C40.568 34.105 41.0002 34.105 41.4291 34.0617C42.2534 34.0287 42.7933 33.4597 43.4321 33.068C43.9926 32.9081 44.5852 32.8981 45.1507 33.0391C45.5837 33.1427 45.9952 33.3213 46.3665 33.5669C46.4662 33.6205 46.5511 33.698 46.6135 33.7924C46.676 33.8869 46.714 33.9954 46.7242 34.1082C46.7344 34.2209 46.7165 34.3345 46.672 34.4386C46.6276 34.5428 46.558 34.6343 46.4695 34.7049C46.0229 35.1575 45.4747 35.4968 44.8705 35.6945L43.5681 36.0614C42.8442 36.0822 42.1257 36.193 41.4291 36.3913C40.9097 36.4576 40.4145 36.6501 39.9866 36.952C39.4792 37.1589 39.0665 37.5468 38.8285 38.0406C38.0042 39.2775 38.029 41.4051 38.8285 42.8523C39.0042 43.3404 39.3595 43.743 39.8218 43.978C40.2835 44.3467 40.8358 44.5845 41.4209 44.6665L41.6929 44.7201C42.2536 44.8899 42.8383 44.9665 43.4238 44.9469C44.0005 44.9913 44.5806 44.9439 45.1425 44.8067C45.9928 44.7299 46.8194 44.4846 47.5741 44.0852C48.0528 43.9097 48.4854 43.6277 48.8393 43.2605C49.0578 43.1514 49.226 42.9625 49.3092 42.7328C49.4233 42.6441 49.5186 42.5335 49.5893 42.4074C49.6601 42.2814 49.705 42.1425 49.7213 41.9988C49.9754 41.5471 50.1168 41.0408 50.1335 40.5227C50.4013 38.2508 50.2901 35.9625 50.2818 33.6824C50.3019 33.0633 50.1084 32.4561 49.7337 31.963ZM45.4722 41.236C45.3104 41.3467 45.1706 41.4865 45.06 41.6484C44.4917 41.5414 43.9039 41.6502 43.4115 41.9535C42.9993 41.5412 42.4182 41.4051 41.9443 41.1C41.9505 40.9997 41.9505 40.8992 41.9443 40.799C41.8577 39.6156 42.0308 39.3105 43.09 38.8034C43.2877 38.7375 43.467 38.6259 43.6134 38.4776C43.857 38.5477 44.1156 38.5461 44.3582 38.4729C44.6009 38.3998 44.8174 38.2583 44.9817 38.0653C45.5051 38.3663 46.0409 37.7932 46.6303 38.0035C46.6097 39.2404 46.4819 40.4114 45.4722 41.236Z" fill="white"/>
<path d="M65.3455 34.0905C65.2532 33.626 65.0559 33.1887 64.7685 32.8124C64.637 32.4837 64.431 32.1901 64.1667 31.9547C63.7483 31.3417 63.1634 30.8611 62.4811 30.5693C61.6982 30.1317 60.7918 29.9677 59.9052 30.1034C59.3521 30.1001 58.8077 30.2423 58.3268 30.5157C57.5025 30.7343 56.8637 31.3404 56.1754 31.8063C56.1116 31.5531 56.0948 31.2904 56.1259 31.0311C56.1259 28.6067 56.1259 26.1781 56.1259 23.7537C56.1259 23.5269 56.2166 23.2795 56.0435 23.0693C56.0464 23.0499 56.0452 23.0301 56.04 23.0112C56.0348 22.9923 56.0257 22.9747 56.0133 22.9596C56.0008 22.9444 55.9854 22.932 55.9679 22.9232C55.9504 22.9144 55.9312 22.9094 55.9116 22.9085C55.4212 22.4005 54.8906 21.9331 54.3249 21.5107C54.118 21.2758 53.881 21.0692 53.6201 20.8963C53.561 20.7749 53.4578 20.6806 53.3316 20.6325C53.0568 20.3201 52.7358 20.0517 52.3796 19.8367V20.6201C52.3796 26.3403 52.3796 32.0578 52.3796 37.7726C52.368 38.4611 52.3996 39.1496 52.4744 39.8342C52.5301 40.5907 52.7722 41.3216 53.1791 41.9617C53.2487 42.2036 53.3929 42.4172 53.5913 42.572C53.7564 42.878 54.0032 43.1321 54.3043 43.3059C54.7129 43.7133 55.2071 44.0245 55.7509 44.2171C55.9364 44.2996 56.0971 44.4439 56.3196 44.4191C56.8415 44.6945 57.4235 44.8362 58.0135 44.8315C58.8242 45.0437 59.6757 45.0437 60.4864 44.8315C61.1416 44.8137 61.7797 44.6185 62.3327 44.2666L62.4687 44.2254C63.0911 43.961 63.6388 43.5475 64.0637 43.0214C64.3761 42.7934 64.6199 42.4839 64.7685 42.1266C65.0613 41.8047 65.2596 41.408 65.3413 40.9804C65.7586 40.0537 65.9736 39.0487 65.9719 38.0323C66.0821 36.6872 65.8672 35.3352 65.3455 34.0905ZM60.1031 41.5618C59.498 41.4632 58.8792 41.4913 58.2855 41.6442C58.225 41.5302 58.1317 41.4368 58.0177 41.3762C57.5318 41.1282 57.127 40.7462 56.8513 40.2753C56.8252 40.2261 56.7876 40.1839 56.7416 40.1523C56.6957 40.1207 56.6428 40.1007 56.5875 40.0939C56.6246 39.3971 56.3485 38.7415 56.3032 38.0571C56.1919 36.3294 56.4227 34.7338 58.063 33.7112C58.1955 33.6355 58.3095 33.5313 58.3968 33.4061C58.6097 33.5356 58.8532 33.6061 59.1023 33.6105C59.3515 33.6148 59.5973 33.5528 59.8146 33.4308C59.9424 33.6107 60.116 33.7531 60.3174 33.8432C60.674 34.0556 60.9845 34.3372 61.2308 34.6714C61.4771 35.0056 61.6542 35.3857 61.7516 35.7893C62.0122 36.6538 62.0686 37.567 61.9165 38.457C61.7973 38.8313 61.7719 39.2292 61.8423 39.6156C61.2571 40.2588 60.7872 41.0051 60.1031 41.5618Z" fill="white"/>
<path d="M36.0012 37.6447C35.8147 37.4023 35.5631 37.2179 35.2759 37.1128C34.855 36.7768 34.3653 36.5375 33.8416 36.4119C33.1653 36.0941 32.4386 35.8974 31.6944 35.8305L29.8315 35.2822C29.5693 35.1791 29.3133 35.0607 29.065 34.9276C28.8906 34.8471 28.7468 34.7126 28.6548 34.5441C28.5628 34.3755 28.5274 34.1818 28.5539 33.9916C28.5792 33.7903 28.6636 33.601 28.7964 33.4476C28.9291 33.2942 29.1043 33.1837 29.2999 33.1298C29.4771 33.068 29.6832 33.1298 29.8357 32.969C30.4661 32.9596 31.0939 33.0529 31.6944 33.2453C32.1145 33.5096 32.5042 33.8194 32.8566 34.1689C32.9529 34.2948 33.0781 34.3958 33.2215 34.4632C33.365 34.5307 33.5225 34.5627 33.6809 34.5565C34.1755 34.8657 34.7483 34.8368 35.2965 34.9358C35.6313 34.9981 35.9773 34.9443 36.2774 34.7832C36.6895 34.2514 36.6895 34.0081 36.2774 33.3525C35.8652 32.8989 35.7869 32.2599 35.383 31.8104C35.0819 31.3004 34.5916 30.9299 34.0189 30.7796C33.3136 30.3613 32.5139 30.1287 31.6944 30.1034C31.0316 29.9039 30.328 29.8826 29.6543 30.0416C29.5645 30.0406 29.4756 30.0604 29.3947 30.0993C28.7533 30.0989 28.1198 30.2411 27.5401 30.5157C27.0049 30.6679 26.5161 30.9514 26.1182 31.3404C25.6255 31.6779 25.2656 32.1765 25.1002 32.7505C24.5644 33.9462 24.4202 35.1461 25.1002 36.3418C25.295 36.8344 25.6452 37.2499 26.0976 37.5252C26.5184 37.8939 27.0089 38.1743 27.5401 38.3498C28.2716 38.6561 29.0433 38.8561 29.8315 38.9435C30.4382 39.1445 31.0617 39.2908 31.6944 39.3806C31.987 39.5868 32.3497 39.628 32.6547 39.8218C32.8131 39.9249 32.9413 40.0682 33.0261 40.2371C33.111 40.4061 33.1496 40.5945 33.1378 40.7832C33.1261 40.9719 33.0645 41.1541 32.9594 41.3111C32.8542 41.4682 32.7092 41.5945 32.5393 41.6772C32.3456 41.7638 32.1642 41.871 31.9788 41.97C31.7872 41.9405 31.5913 41.9546 31.4059 42.0112L30.12 41.9865C29.337 41.8463 28.6982 41.5329 28.4014 40.7083C28.3218 40.5091 28.1918 40.3341 28.0242 40.2003C27.8566 40.0666 27.6571 39.9788 27.4453 39.9455C27.0596 39.8292 26.6541 39.7941 26.2542 39.8424C25.8737 39.795 25.4889 39.795 25.1084 39.8424C24.4367 39.9702 24.3707 40.0321 24.3748 40.6341C24.3691 41.3922 24.6221 42.1296 25.092 42.7245C25.3351 43.2229 25.7386 43.6252 26.2377 43.8666C26.3284 44.0192 26.4932 44.0646 26.6498 44.1429C27.6929 44.6479 28.83 44.9288 29.9882 44.9675C30.4639 45.0108 30.9425 45.0108 31.4183 44.9675C31.5159 44.9988 31.6201 45.0042 31.7205 44.9833C31.8209 44.9623 31.9141 44.9157 31.9911 44.848C32.6464 44.9345 33.2276 44.5923 33.854 44.514C34.4356 44.3811 34.9717 44.0966 35.4078 43.6893C35.6574 43.5666 35.8652 43.373 36.0054 43.1327C36.2741 42.9089 36.4729 42.6127 36.5782 42.2792C36.7575 42.0611 36.8756 41.7993 36.9203 41.5205C37.25 40.3908 37.3077 39.2899 36.57 38.2756C36.4526 38.01 36.2533 37.7889 36.0012 37.6447Z" fill="white"/>
</svg>
